<?xml version="1.0" encoding="utf-8"?>
<!-- Generator: Adobe Illustrator 17.0.0, SVG Export Plug-In . SVG Version: 6.00 Build 0)  -->
<!DOCTYPE svg PUBLIC "-//W3C//DTD SVG 1.1//EN" "http://www.w3.org/Graphics/SVG/1.1/DTD/svg11.dtd">
<svg version="1.1" xmlns="http://www.w3.org/2000/svg" xmlns:xlink="http://www.w3.org/1999/xlink" x="0px" y="0px" width="300px"
	 height="29.333px" viewBox="0 219.038 300 29.333" enable-background="new 0 219.038 300 29.333" xml:space="preserve">
<g id="type">
	<g id="type_2_">
		<path fill="#FFFFFF" d="M13.528,247.885L0,219.676h3.183L15.438,245.3l12.295-25.624h3.104l-13.688,28.21H13.528z"/>
		<path fill="#FFFFFF" d="M37.024,247.885v-28.21h2.943v28.21H37.024z"/>
		<path fill="#FFFFFF" d="M57.6,247.885V222.18H45.943v-2.504h26.141v2.504H60.545v25.705H57.6z"/>
		<path fill="#FFFFFF" d="M76.078,233.798c0-10.383,3.861-14.76,14.881-14.76c11.142,0,14.962,4.377,14.962,14.76
			c0,10.388-3.82,14.684-14.962,14.684C79.939,248.482,76.078,244.186,76.078,233.798z M90.959,221.464
			c-8.952,0-11.856,3.502-11.856,12.334c0,8.835,2.904,12.338,11.856,12.338c9.073,0,11.978-3.424,11.978-11.939
			C102.937,225.047,100.191,221.464,90.959,221.464z"/>
		<path fill="#FFFFFF" d="M138.25,247.885c-0.437-0.476-0.478-1.192-0.478-1.869v-5.809c0-3.862-3.58-4.141-7.52-4.141h-14.244
			v11.82h-2.945v-19.497c0-6.603,3.541-8.712,9.072-8.712h8.117c5.809,0,9.788,1.39,9.788,8.634c0,3.5-1.79,5.887-5.531,6.325
			c2.904,0.159,6.208,0.917,6.208,5.294v6.007c0,0.677,0.04,1.432,0.517,1.951H138.25z M122.493,222.102
			c-3.979,0-6.485,1.393-6.485,6.325v5.413h13.886c4.257,0,7.161-0.916,7.161-5.174c0-5.333-2.665-6.564-6.962-6.564H122.493z"/>
		<path fill="#FFFFFF" d="M197.642,247.885v-24.989l-14.602,24.989h-2.626l-14.604-24.989v24.989h-2.745v-28.21h4.218l14.522,24.908
			l14.445-24.908h4.137v28.21H197.642z"/>
		<path fill="#FFFFFF" d="M208.092,247.885v-21.208c0-4.892,2.666-7.002,7.839-7.002h17.148v2.426H216.01
			c-3.262,0-5.052,1.63-5.052,4.614v5.453h21.565v2.229h-21.565v10.979h22.441v2.508H208.092z"/>
		<path fill="#FFFFFF" d="M240.258,247.885v-28.21h2.945v25.663h21.725v2.546H240.258z"/>
		<path fill="#FFFFFF" d="M270.158,233.798c0-10.383,3.859-14.76,14.881-14.76c11.141,0,14.961,4.377,14.961,14.76
			c0,10.388-3.82,14.684-14.961,14.684C274.016,248.482,270.158,244.186,270.158,233.798z M285.039,221.464
			c-8.952,0-11.857,3.502-11.857,12.334c0,8.835,2.905,12.338,11.857,12.338c9.073,0,11.977-3.424,11.977-11.939
			C297.016,225.047,294.27,221.464,285.039,221.464z"/>
	</g>
</g>
<g id="logo_1_">
</g>
</svg>
