<?xml version="1.0" encoding="utf-8"?>
<!-- Generator: Adobe Illustrator 19.0.0, SVG Export Plug-In . SVG Version: 6.00 Build 0)  -->
<svg version="1.1" id="Layer_2_2_" xmlns="http://www.w3.org/2000/svg" xmlns:xlink="http://www.w3.org/1999/xlink" x="0px" y="0px"
	 viewBox="475 -598.7 1792 1792" style="enable-background:new 475 -598.7 1792 1792;" xml:space="preserve">
<style type="text/css">
	.st0{fill:#FFFFFF;}
</style>
<g id="Layer_3">
	<path class="st0" d="M1469.1,299.9c0.1-0.9,0.1-1.7,0.1-2.6s0-1.8-0.1-2.6l422.4-422.4c7.2-7.2,10.8-15.5,10.8-24.9
		s-3.6-17.7-10.8-24.9l-54.1-54.1c-7.2-7.2-15.5-10.8-24.9-10.8s-17.7,3.6-24.9,10.8L1371,185.1L954.4-231.6
		c-7.2-7.2-15.5-10.8-24.9-10.8s-17.7,3.6-24.9,10.8l-54.1,54.1c-7.2,7.2-10.8,15.5-10.8,24.9s3.6,17.7,10.8,24.9l422.4,422.4
		c-0.1,0.9-0.1,1.7-0.1,2.6s0,1.8,0.1,2.6L850.5,722.3c-7.2,7.2-10.8,15.5-10.8,24.9s3.6,17.7,10.8,24.9l54.1,54.1
		c7.2,7.2,15.5,10.8,24.9,10.8s17.7-3.6,24.9-10.8L1371,409.5l416.6,416.6c7.2,7.2,15.5,10.8,24.9,10.8s17.7-3.6,24.9-10.8
		l54.1-54.1c7.2-7.2,10.8-15.5,10.8-24.9s-3.6-17.7-10.8-24.9L1469.1,299.9z"/>
</g>
</svg>
